<svg width="33" height="41" viewBox="0 0 33 41" fill="none" xmlns="http://www.w3.org/2000/svg">
<path d="M30.0246 12.4576C29.9019 12.2351 29.738 12.0532 29.547 11.9276C29.356 11.802 29.1435 11.7363 28.9278 11.7362H10.6924L9.15264 7.09979C8.95075 6.48922 8.60888 5.96761 8.17038 5.60109C7.73188 5.23457 7.2165 5.03964 6.68957 5.04102H3.57672V8.38861H6.68957L13.0193 27.4447C13.1207 27.7496 13.2918 28.01 13.5109 28.1932C13.7301 28.3764 13.9875 28.4741 14.2509 28.4741H24.925C25.4814 28.4741 25.9791 28.0406 26.1753 27.3895L30.1781 13.9992C30.2537 13.7458 30.2793 13.4732 30.2525 13.2047C30.2258 12.9362 30.1476 12.6799 30.0246 12.4576ZM24.0004 25.1265H15.1408L11.8052 15.0838H27.0025L24.0004 25.1265Z" fill="black"/>
<path d="M14.918 35.1691C16.0234 35.1691 16.9194 34.045 16.9194 32.6584C16.9194 31.2718 16.0234 30.1477 14.918 30.1477C13.8127 30.1477 12.9166 31.2718 12.9166 32.6584C12.9166 34.045 13.8127 35.1691 14.918 35.1691Z" fill="black"/>
<path d="M24.2579 35.1691C25.3633 35.1691 26.2593 34.045 26.2593 32.6584C26.2593 31.2718 25.3633 30.1477 24.2579 30.1477C23.1526 30.1477 22.2565 31.2718 22.2565 32.6584C22.2565 34.045 23.1526 35.1691 24.2579 35.1691Z" fill="black"/>
</svg>
