<svg width="33" height="41" viewBox="0 0 33 41" fill="none" xmlns="http://www.w3.org/2000/svg">
<path d="M28.1732 31.8216L21.2964 23.1948C22.5677 20.771 23.0769 17.8417 22.7254 14.9739C22.3739 12.1062 21.1867 9.50407 19.3936 7.67137C17.6005 5.83866 15.3291 4.90575 13.0192 5.05325C10.7093 5.20074 8.52518 6.41816 6.88971 8.46979C5.25425 10.5214 4.28378 13.2613 4.1662 16.159C4.04862 19.0567 4.7923 21.9061 6.25325 24.1554C7.7142 26.4048 9.78849 27.8941 12.0745 28.3351C14.3606 28.776 16.6957 28.1373 18.6279 26.5424L25.5047 35.1691L28.1732 31.8216ZM6.8249 16.7574C6.8249 12.1428 9.81767 8.38849 13.4963 8.38849C17.1748 8.38849 20.1676 12.1428 20.1676 16.7574C20.1676 21.3721 17.1748 25.1264 13.4963 25.1264C9.81767 25.1264 6.8249 21.3721 6.8249 16.7574Z" fill="black"/>
</svg>
