<svg width="442" height="541" viewBox="0 0 442 541" fill="none" xmlns="http://www.w3.org/2000/svg">
<rect width="442" height="541" rx="21" fill="white" fill-opacity="0.7"/>
<path d="M157.032 240.688V241.968C155.581 242.011 154.472 242.181 153.704 242.48C152.978 242.736 152.488 243.248 152.232 244.016C151.976 244.741 151.847 245.893 151.847 247.472V279.216C151.847 280.752 151.976 281.904 152.232 282.672C152.488 283.44 152.978 283.952 153.704 284.208C154.472 284.464 155.581 284.635 157.032 284.72V286C156.136 285.915 154.962 285.872 153.512 285.872C152.061 285.829 150.504 285.808 148.84 285.808C147.133 285.808 145.405 285.829 143.656 285.872C141.949 285.872 140.541 285.915 139.432 286V284.72C141.224 284.635 142.589 284.464 143.528 284.208C144.466 283.952 145.085 283.44 145.384 282.672C145.725 281.904 145.896 280.752 145.896 279.216V247.472C145.896 245.893 145.768 244.72 145.512 243.952C145.256 243.184 144.744 242.672 143.976 242.416C143.25 242.117 142.162 241.968 140.712 241.968H139.88C138.386 241.968 137.277 242.117 136.552 242.416C135.869 242.672 135.421 243.205 135.208 244.016C134.994 244.784 134.824 245.936 134.696 247.472C134.482 249.989 134.269 252.699 134.056 255.6C133.885 258.501 133.65 261.424 133.352 264.368C133.096 267.312 132.69 270.128 132.135 272.816C131.581 275.504 130.856 277.915 129.96 280.048C129.064 282.139 127.912 283.803 126.504 285.04C125.096 286.277 123.368 286.896 121.32 286.896C119.912 286.896 118.589 286.576 117.352 285.936C116.114 285.253 115.495 284.123 115.495 282.544C115.495 281.435 115.858 280.56 116.584 279.92C117.309 279.237 118.205 278.896 119.272 278.896C120.21 278.896 120.978 279.152 121.576 279.664C122.216 280.176 122.536 280.859 122.536 281.712C122.536 282.651 122.301 283.419 121.832 284.016C121.362 284.571 120.68 285.104 119.784 285.616C120.082 285.659 120.36 285.68 120.616 285.68C120.914 285.68 121.149 285.68 121.32 285.68C123.282 285.68 124.925 284.933 126.248 283.44C127.57 281.947 128.637 279.92 129.448 277.36C130.301 274.757 130.962 271.813 131.432 268.528C131.901 265.243 132.264 261.808 132.52 258.224C132.776 254.597 133.01 251.013 133.224 247.472C133.352 245.979 133.288 244.848 133.032 244.08C132.818 243.312 132.306 242.779 131.496 242.48C130.728 242.181 129.576 242.011 128.04 241.968V240.688C128.936 240.731 130.002 240.773 131.24 240.816C132.477 240.859 133.608 240.88 134.632 240.88C135.613 240.88 136.552 240.859 137.448 240.816C138.386 240.731 139.325 240.688 140.264 240.688C141.885 240.688 143.357 240.731 144.68 240.816C146.002 240.859 147.581 240.88 149.416 240.88C150.269 240.88 151.165 240.88 152.104 240.88C153.042 240.837 153.938 240.816 154.792 240.816C155.688 240.773 156.434 240.731 157.032 240.688ZM170.382 286.448C168.632 286.448 167.118 286.128 165.838 285.488C164.558 284.805 163.576 283.867 162.894 282.672C162.254 281.477 161.934 280.091 161.934 278.512C161.934 276.635 162.36 275.099 163.214 273.904C164.11 272.709 165.24 271.749 166.606 271.024C167.971 270.299 169.4 269.701 170.894 269.232C172.43 268.72 173.88 268.251 175.246 267.824C176.611 267.355 177.72 266.821 178.574 266.224C179.47 265.627 179.918 264.837 179.918 263.856V259.888C179.918 258.096 179.64 256.731 179.086 255.792C178.574 254.853 177.87 254.235 176.974 253.936C176.078 253.595 175.075 253.424 173.966 253.424C172.899 253.424 171.747 253.573 170.51 253.872C169.315 254.171 168.355 254.789 167.63 255.728C168.44 255.899 169.144 256.325 169.742 257.008C170.339 257.691 170.638 258.565 170.638 259.632C170.638 260.699 170.296 261.552 169.614 262.192C168.931 262.789 168.056 263.088 166.99 263.088C165.752 263.088 164.835 262.704 164.238 261.936C163.683 261.125 163.406 260.229 163.406 259.248C163.406 258.139 163.683 257.243 164.238 256.56C164.792 255.877 165.496 255.237 166.35 254.64C167.331 253.957 168.59 253.381 170.126 252.912C171.704 252.4 173.475 252.144 175.438 252.144C177.187 252.144 178.68 252.357 179.918 252.784C181.155 253.168 182.179 253.744 182.99 254.512C184.099 255.536 184.824 256.795 185.166 258.288C185.507 259.739 185.678 261.488 185.678 263.536V281.328C185.678 282.395 185.827 283.163 186.126 283.632C186.467 284.101 186.979 284.336 187.662 284.336C188.131 284.336 188.579 284.229 189.006 284.016C189.432 283.803 189.944 283.461 190.542 282.992L191.246 284.08C190.35 284.763 189.496 285.339 188.686 285.808C187.875 286.235 186.787 286.448 185.422 286.448C184.184 286.448 183.16 286.235 182.35 285.808C181.539 285.381 180.92 284.763 180.494 283.952C180.11 283.099 179.918 282.032 179.918 280.752C178.766 282.672 177.379 284.101 175.758 285.04C174.179 285.979 172.387 286.448 170.382 286.448ZM172.686 283.888C174.094 283.888 175.395 283.483 176.59 282.672C177.827 281.861 178.936 280.645 179.918 279.024V266.48C179.406 267.205 178.659 267.824 177.678 268.336C176.696 268.805 175.63 269.296 174.478 269.808C173.326 270.277 172.216 270.853 171.15 271.536C170.126 272.176 169.272 273.029 168.59 274.096C167.907 275.163 167.566 276.549 167.566 278.256C167.566 279.963 168.014 281.328 168.91 282.352C169.848 283.376 171.107 283.888 172.686 283.888ZM228.561 253.104V254.448C226.811 254.448 225.553 254.768 224.785 255.408C224.059 256.048 223.697 257.264 223.697 259.056V280.048C223.697 281.84 224.059 283.056 224.785 283.696C225.553 284.336 226.811 284.656 228.561 284.656V286C227.835 285.957 226.726 285.915 225.233 285.872C223.739 285.787 222.289 285.744 220.881 285.744C219.473 285.744 218.086 285.787 216.721 285.872C215.398 285.915 214.395 285.957 213.713 286V284.656C215.249 284.656 216.337 284.336 216.977 283.696C217.617 283.056 217.937 281.84 217.937 280.048V259.056C217.937 257.264 217.617 256.048 216.977 255.408C216.337 254.768 215.249 254.448 213.713 254.448H208.017C206.481 254.448 205.393 254.768 204.753 255.408C204.113 256.048 203.793 257.264 203.793 259.056V280.048C203.793 281.84 204.113 283.056 204.753 283.696C205.393 284.336 206.481 284.656 208.017 284.656V286C207.334 285.957 206.31 285.915 204.945 285.872C203.622 285.787 202.257 285.744 200.849 285.744C199.441 285.744 197.99 285.787 196.497 285.872C195.003 285.915 193.894 285.957 193.169 286V284.656C194.918 284.656 196.155 284.336 196.881 283.696C197.649 283.056 198.033 281.84 198.033 280.048V259.056C198.033 257.264 197.649 256.048 196.881 255.408C196.155 254.768 194.918 254.448 193.169 254.448V253.104C193.894 253.147 195.003 253.211 196.497 253.296C197.99 253.339 199.441 253.36 200.849 253.36C202.897 253.36 204.71 253.317 206.289 253.232C207.91 253.147 209.553 253.104 211.217 253.104C212.881 253.104 214.395 253.147 215.761 253.232C217.126 253.317 218.833 253.36 220.881 253.36C222.289 253.36 223.739 253.339 225.233 253.296C226.726 253.211 227.835 253.147 228.561 253.104ZM282.598 253.104V254.448C280.848 254.448 279.59 254.768 278.822 255.408C278.096 256.048 277.734 257.264 277.734 259.056V280.048C277.734 281.84 278.096 283.056 278.822 283.696C279.59 284.336 280.848 284.656 282.598 284.656V286C282.128 285.957 281.467 285.936 280.614 285.936C279.76 285.893 278.822 285.851 277.798 285.808C276.816 285.765 275.856 285.744 274.918 285.744C273.339 285.744 271.824 285.787 270.374 285.872C268.923 285.957 267.494 286 266.086 286C264.678 286 263.227 285.957 261.734 285.872C260.24 285.787 258.79 285.744 257.382 285.744C255.974 285.744 254.544 285.787 253.094 285.872C251.686 285.957 250.299 286 248.934 286C248.038 286 247.099 285.979 246.118 285.936C245.179 285.893 244.198 285.851 243.174 285.808C242.15 285.765 241.083 285.744 239.974 285.744C239.035 285.744 238.054 285.765 237.03 285.808C236.048 285.851 235.131 285.893 234.278 285.936C233.467 285.936 232.806 285.957 232.294 286V284.656C234.043 284.656 235.28 284.336 236.006 283.696C236.774 283.056 237.158 281.84 237.158 280.048V259.056C237.158 257.264 236.774 256.048 236.006 255.408C235.28 254.768 234.043 254.448 232.294 254.448V253.104C233.019 253.147 234.128 253.211 235.622 253.296C237.158 253.339 238.587 253.36 239.91 253.36C241.275 253.36 242.555 253.339 243.75 253.296C244.987 253.211 245.904 253.147 246.502 253.104V254.448C245.179 254.448 244.24 254.768 243.686 255.408C243.174 256.048 242.918 257.264 242.918 259.056V280.048C242.918 281.84 243.259 283.056 243.942 283.696C244.624 284.336 245.819 284.656 247.526 284.656H250.342C251.878 284.656 252.966 284.336 253.606 283.696C254.246 283.056 254.566 281.84 254.566 280.048V259.056C254.566 257.264 254.288 256.048 253.734 255.408C253.222 254.768 252.304 254.448 250.982 254.448V253.104C251.579 253.147 252.496 253.211 253.734 253.296C255.014 253.339 256.251 253.36 257.446 253.36C258.683 253.36 259.92 253.339 261.158 253.296C262.395 253.211 263.312 253.147 263.91 253.104V254.448C262.587 254.448 261.648 254.768 261.094 255.408C260.582 256.048 260.326 257.264 260.326 259.056V280.048C260.326 281.84 260.646 283.056 261.286 283.696C261.926 284.336 263.014 284.656 264.55 284.656H267.75C269.286 284.656 270.374 284.336 271.014 283.696C271.654 283.056 271.974 281.84 271.974 280.048V259.056C271.974 257.264 271.696 256.048 271.142 255.408C270.63 254.768 269.712 254.448 268.39 254.448V253.104C268.987 253.147 269.904 253.211 271.142 253.296C272.379 253.339 273.659 253.36 274.982 253.36C276.347 253.36 277.776 253.339 279.27 253.296C280.763 253.211 281.872 253.147 282.598 253.104ZM295.382 286.448C293.632 286.448 292.118 286.128 290.838 285.488C289.558 284.805 288.576 283.867 287.894 282.672C287.254 281.477 286.934 280.091 286.934 278.512C286.934 276.635 287.36 275.099 288.214 273.904C289.11 272.709 290.24 271.749 291.606 271.024C292.971 270.299 294.4 269.701 295.894 269.232C297.43 268.72 298.88 268.251 300.246 267.824C301.611 267.355 302.72 266.821 303.574 266.224C304.47 265.627 304.918 264.837 304.918 263.856V259.888C304.918 258.096 304.64 256.731 304.086 255.792C303.574 254.853 302.87 254.235 301.974 253.936C301.078 253.595 300.075 253.424 298.966 253.424C297.899 253.424 296.747 253.573 295.51 253.872C294.315 254.171 293.355 254.789 292.63 255.728C293.44 255.899 294.144 256.325 294.742 257.008C295.339 257.691 295.638 258.565 295.638 259.632C295.638 260.699 295.296 261.552 294.614 262.192C293.931 262.789 293.056 263.088 291.99 263.088C290.752 263.088 289.835 262.704 289.238 261.936C288.683 261.125 288.406 260.229 288.406 259.248C288.406 258.139 288.683 257.243 289.238 256.56C289.792 255.877 290.496 255.237 291.35 254.64C292.331 253.957 293.59 253.381 295.126 252.912C296.704 252.4 298.475 252.144 300.438 252.144C302.187 252.144 303.68 252.357 304.918 252.784C306.155 253.168 307.179 253.744 307.99 254.512C309.099 255.536 309.824 256.795 310.166 258.288C310.507 259.739 310.678 261.488 310.678 263.536V281.328C310.678 282.395 310.827 283.163 311.126 283.632C311.467 284.101 311.979 284.336 312.662 284.336C313.131 284.336 313.579 284.229 314.006 284.016C314.432 283.803 314.944 283.461 315.542 282.992L316.246 284.08C315.35 284.763 314.496 285.339 313.686 285.808C312.875 286.235 311.787 286.448 310.422 286.448C309.184 286.448 308.16 286.235 307.35 285.808C306.539 285.381 305.92 284.763 305.494 283.952C305.11 283.099 304.918 282.032 304.918 280.752C303.766 282.672 302.379 284.101 300.758 285.04C299.179 285.979 297.387 286.448 295.382 286.448ZM297.686 283.888C299.094 283.888 300.395 283.483 301.59 282.672C302.827 281.861 303.936 280.645 304.918 279.024V266.48C304.406 267.205 303.659 267.824 302.678 268.336C301.696 268.805 300.63 269.296 299.478 269.808C298.326 270.277 297.216 270.853 296.15 271.536C295.126 272.176 294.272 273.029 293.59 274.096C292.907 275.163 292.566 276.549 292.566 278.256C292.566 279.963 293.014 281.328 293.91 282.352C294.848 283.376 296.107 283.888 297.686 283.888Z" fill="black"/>
</svg>
